<svg xmlns="http://www.w3.org/2000/svg" width="48" height="48" viewBox="0 0 48 48" fill="none">
<g id="check">
<path id="Vector" d="M19.4486 36C18.9264 36.0022 18.4241 35.7815 18.0491 35.3849L8.6039 25.3859C8.41565 25.1854 8.26543 24.9464 8.16184 24.6826C8.05824 24.4187 8.0033 24.1352 8.00014 23.8482C7.99377 23.2685 8.19872 22.7099 8.56991 22.2951C8.94111 21.8803 9.44813 21.6433 9.97945 21.6364C10.5108 21.6294 11.0229 21.853 11.4031 22.258L19.4566 30.7802L36.5955 12.6211C36.9762 12.2162 37.4888 11.9928 38.0205 12.0002C38.5522 12.0075 39.0595 12.245 39.4307 12.6604C39.8018 13.0758 40.0066 13.635 39.9998 14.215C39.9931 14.7951 39.7754 15.3485 39.3947 15.7534L20.8482 35.3849C20.4732 35.7815 19.9709 36.0022 19.4486 36Z" fill="#6b7280"/>
</g>
</svg>