<svg width="16" height="11" viewBox="0 0 16 11" fill="none" xmlns="http://www.w3.org/2000/svg">
<g id="Group">
<path id="Vector" d="M6.25814 5.4998C6.25814 4.5339 7.0339 3.75814 7.9998 3.75814C8.96571 3.75814 9.74147 4.5339 9.74147 5.4998C9.74147 6.46571 8.96571 7.24147 7.9998 7.24147C7.0339 7.24147 6.25814 6.46571 6.25814 5.4998ZM6.71647 5.4998C6.71647 6.2089 7.29071 6.78314 7.9998 6.78314C8.7089 6.78314 9.28314 6.2089 9.28314 5.4998C9.28314 4.79071 8.7089 4.21647 7.9998 4.21647C7.29071 4.21647 6.71647 4.79071 6.71647 5.4998Z" fill="#6B7280" stroke="#6B7280" stroke-width="0.666667"/>
<path id="Vector_2" d="M14.6504 5.93747L14.6631 5.91884L14.6731 5.89868C14.7951 5.65484 14.7951 5.34438 14.6731 5.10054L14.6631 5.08037L14.6504 5.06175C13.7218 3.70077 12.7766 2.71526 11.6953 2.07246C10.6095 1.42694 9.41068 1.14128 8 1.14128C6.58932 1.14128 5.39046 1.42694 4.30466 2.07246C3.22345 2.71526 2.27816 3.70077 1.34965 5.06175L1.34963 5.06174L1.34765 5.06471C1.17301 5.32668 1.17301 5.67254 1.34765 5.93451L1.34763 5.93452L1.34965 5.93747C2.27816 7.29844 3.22345 8.28396 4.30466 8.92675C5.39046 9.57228 6.58932 9.85794 8 9.85794C9.41068 9.85794 10.6095 9.57228 11.6953 8.92675C12.7766 8.28396 13.7218 7.29844 14.6504 5.93747ZM8 0.682943C9.88299 0.682943 11.2854 1.20021 12.3883 1.96425C13.4973 2.73244 14.3195 3.7611 15.0228 4.80969C15.2955 5.21897 15.3009 5.74912 15.0213 6.1917C14.318 7.22763 13.4961 8.25525 12.3878 9.02594C11.2844 9.79326 9.88211 10.3163 8 10.3163C6.11789 10.3163 4.71558 9.79326 3.61219 9.02594C2.50285 8.25449 1.68039 7.22561 0.976641 6.18864C0.702075 5.77584 0.702231 5.22251 0.977108 4.80987C1.68036 3.76121 2.50268 2.73248 3.61169 1.96425C4.71463 1.20021 6.11701 0.682943 8 0.682943Z" fill="#6B7280" stroke="#6B7280" stroke-width="0.666667"/>
</g>
</svg>
