<svg width="44" height="29" viewBox="0 0 44 29" fill="none" xmlns="http://www.w3.org/2000/svg">
<g id="Seitsenpainos_logo 1" clip-path="url(#clip0_2126_4770)">
<g id="Seitsenpainos">
<path id="Vector" fill-rule="evenodd" clip-rule="evenodd" d="M28.6312 0.642118C28.4273 1.51796 28.0561 2.3322 27.7402 3.1526C27.4221 3.97972 27.1281 4.813 26.8224 5.63564C26.2103 7.28484 25.5557 8.91052 25.0141 10.6292C25.3501 10.7708 25.7421 10.7104 26.1207 10.7104C27.2457 10.7104 28.536 10.772 29.5759 10.6835C31.075 10.5558 32.027 9.94764 32.6262 9.03708C32.9213 8.58796 33.1633 7.79892 32.923 7.17452C32.7729 6.7842 32.4173 6.43532 32.0595 6.28412C30.9412 5.81036 29.1094 6.3698 27.7402 6.04108C27.7867 5.55164 27.9995 5.09468 28.172 4.63772C28.3428 4.1858 28.5416 3.73892 28.7118 3.28812C29.0573 2.37308 29.3648 1.44124 29.7915 0.588918C31.8674 0.586118 33.9041 0.458438 35.9459 0.535158C38.0151 0.612998 39.5529 1.1114 40.8857 1.99284C42.1283 2.81436 43.1475 4.10964 43.5311 5.77172C43.9393 7.53964 43.5944 9.65252 42.8294 11.0895C41.3656 13.838 38.7616 15.6916 35.2173 16.2992C33.2954 16.629 31.2716 16.5008 29.0898 16.5691C27.0374 16.6335 24.9212 16.4996 22.8273 16.596C22.4885 17.0081 22.3575 17.5614 22.1794 18.0536C21.0958 21.0491 19.8957 24.1072 18.778 27.1234C18.5943 27.6201 18.4929 28.1611 18.1575 28.5811C14.5444 28.613 10.803 28.6707 7.19829 28.5542C7.24813 28.0306 7.47886 27.554 7.65693 27.0696C7.84005 26.5735 7.96213 26.0538 8.14301 25.5582C8.84637 23.6279 9.58278 21.7093 10.3293 19.7544C10.6961 18.7945 11.0701 17.8179 11.3552 16.8121C10.9817 16.6206 10.4121 16.704 9.87062 16.704C8.82565 16.704 7.76725 16.6951 6.76653 16.704C6.26981 16.7085 5.77309 16.7595 5.33573 16.6228C5.40741 16.088 5.66501 15.5902 5.84869 15.084C6.21381 14.0782 6.63885 13.0971 7.00957 12.088C7.19158 11.5924 7.32822 11.0592 7.63061 10.6297C9.60126 10.5144 11.7713 10.7154 13.6769 10.576C13.9228 10.3167 14.0152 9.93476 14.1356 9.60436C14.5035 8.593 14.9442 7.56148 15.2421 6.4734C14.7247 6.32724 14.0986 6.3922 13.4608 6.3922C10.3847 6.39276 7.32037 6.3922 4.25605 6.3922C3.04813 6.3922 1.85085 6.42692 0.720215 6.31156C0.737015 5.78628 1.01197 5.32596 1.20629 4.82588C1.65933 3.65996 2.11181 2.4722 2.60965 1.20884C2.73621 0.887398 2.75805 0.594518 3.06829 0.534038C3.51349 0.447238 4.12893 0.560918 4.71469 0.560918C8.49637 0.561478 12.1173 0.560358 15.9976 0.560918C17.0319 0.560918 18.0881 0.572118 19.1291 0.534038C20.1858 0.495398 21.2375 0.608518 22.2875 0.560918C24.1495 0.476918 26.0468 0.482518 27.9021 0.560918C28.1462 0.570998 28.4167 0.497638 28.6312 0.642118Z" fill="white"/>
</g>
</g>
<defs>
<clipPath id="clip0_2126_4770">
<rect width="42.9845" height="28.1226" fill="white" transform="translate(0.720215 0.5)"/>
</clipPath>
</defs>
</svg>
