<svg width="173" height="56" viewBox="0 0 173 56" fill="none" xmlns="http://www.w3.org/2000/svg">
<rect width="56" height="56" rx="12" fill="#1D4ED8"/>
<g clip-path="url(#clip0_4064_8629)">
<path fill-rule="evenodd" clip-rule="evenodd" d="M34.6309 14.1421C34.4271 15.018 34.0558 15.8322 33.74 16.6526C33.4219 17.4797 33.1279 18.313 32.8221 19.1356C32.2101 20.7848 31.5554 22.4105 31.0139 24.1292C31.3499 24.2708 31.7419 24.2104 32.1205 24.2104C33.2455 24.2104 34.5357 24.272 35.5757 24.1835C37.0748 24.0558 38.0268 23.4476 38.626 22.5371C38.9211 22.088 39.163 21.2989 38.9228 20.6745C38.7727 20.2842 38.4171 19.9353 38.0593 19.7841C36.9409 19.3104 35.1092 19.8698 33.74 19.5411C33.7865 19.0516 33.9993 18.5947 34.1717 18.1377C34.3425 17.6858 34.5413 17.2389 34.7116 16.7881C35.0571 15.8731 35.3645 14.9412 35.7913 14.0889C37.8672 14.0861 39.9039 13.9584 41.9457 14.0352C44.0149 14.113 45.5526 14.6114 46.8854 15.4928C48.1281 16.3144 49.1473 17.6096 49.5308 19.2717C49.9391 21.0396 49.5941 23.1525 48.8292 24.5895C47.3653 27.338 44.7613 29.1916 41.2171 29.7992C39.2952 30.129 37.2713 30.0008 35.0896 30.0691C33.0372 30.1335 30.9209 29.9996 28.8271 30.096C28.4883 30.5081 28.3573 31.0614 28.1792 31.5536C27.0956 34.5491 25.8955 37.6072 24.7777 40.6234C24.594 41.1201 24.4927 41.6611 24.1573 42.0811C20.5441 42.113 16.8028 42.1707 13.1981 42.0542C13.2479 41.5306 13.4786 41.054 13.6567 40.5696C13.8398 40.0735 13.9619 39.5538 14.1428 39.0582C14.8461 37.1279 15.5825 35.2093 16.329 33.2544C16.6958 32.2945 17.0699 31.3179 17.3549 30.3121C16.9814 30.1206 16.4119 30.204 15.8704 30.204C14.8254 30.204 13.767 30.1951 12.7663 30.204C12.2696 30.2085 11.7729 30.2595 11.3355 30.1228C11.4072 29.588 11.6648 29.0902 11.8485 28.584C12.2136 27.5782 12.6386 26.5971 13.0093 25.588C13.1913 25.0924 13.328 24.5592 13.6304 24.1297C15.601 24.0144 17.771 24.2154 19.6767 24.076C19.9225 23.8167 20.0149 23.4348 20.1353 23.1044C20.5033 22.093 20.944 21.0615 21.2419 19.9734C20.7245 19.8272 20.0984 19.8922 19.4605 19.8922C16.3844 19.8928 13.3201 19.8922 10.2558 19.8922C9.04789 19.8922 7.85061 19.9269 6.71997 19.8116C6.73677 19.2863 7.01173 18.826 7.20605 18.3259C7.65909 17.16 8.11157 15.9722 8.60941 14.7088C8.73597 14.3874 8.75781 14.0945 9.06805 14.034C9.51325 13.9472 10.1287 14.0609 10.7145 14.0609C14.4961 14.0615 18.1171 14.0604 21.9973 14.0609C23.0317 14.0609 24.0878 14.0721 25.1289 14.034C26.1856 13.9954 27.2373 14.1085 28.2873 14.0609C30.1493 13.9769 32.0465 13.9825 33.9018 14.0609C34.146 14.071 34.4165 13.9976 34.6309 14.1421Z" fill="white"/>
</g>
<path d="M74.268 31V6.412H83.52C85.56 6.412 87.252 6.7 88.596 7.276C89.94 7.828 90.948 8.728 91.62 9.976C92.316 11.224 92.664 12.892 92.664 14.98C92.664 17.068 92.316 18.772 91.62 20.092C90.948 21.388 89.94 22.348 88.596 22.972C87.252 23.572 85.56 23.872 83.52 23.872H79.236V31H74.268ZM79.236 19.804H83.376C84.888 19.804 85.968 19.408 86.616 18.616C87.264 17.8 87.588 16.6 87.588 15.016C87.588 13.384 87.264 12.22 86.616 11.524C85.968 10.828 84.888 10.48 83.376 10.48H79.236V19.804ZM95.5659 31V12.928H100.354V15.052C100.762 14.74 101.266 14.416 101.866 14.08C102.466 13.72 103.114 13.396 103.81 13.108C104.53 12.796 105.214 12.592 105.862 12.496V17.14C105.238 17.236 104.578 17.404 103.882 17.644C103.186 17.86 102.526 18.1 101.902 18.364C101.302 18.628 100.786 18.868 100.354 19.084V31H95.5659ZM115.928 31.396C113.888 31.396 112.244 31.06 110.996 30.388C109.772 29.716 108.884 28.684 108.332 27.292C107.78 25.876 107.504 24.052 107.504 21.82C107.504 19.66 107.792 17.908 108.368 16.564C108.944 15.196 109.856 14.188 111.104 13.54C112.352 12.868 113.96 12.532 115.928 12.532C117.92 12.532 119.528 12.868 120.752 13.54C122 14.188 122.912 15.196 123.488 16.564C124.088 17.908 124.388 19.66 124.388 21.82C124.388 24.052 124.112 25.876 123.56 27.292C123.008 28.684 122.108 29.716 120.86 30.388C119.636 31.06 117.992 31.396 115.928 31.396ZM115.928 27.436C116.936 27.436 117.692 27.256 118.196 26.896C118.7 26.512 119.036 25.912 119.204 25.096C119.396 24.256 119.492 23.164 119.492 21.82C119.492 20.5 119.384 19.456 119.168 18.688C118.952 17.896 118.592 17.332 118.088 16.996C117.584 16.66 116.864 16.492 115.928 16.492C115.016 16.492 114.296 16.66 113.768 16.996C113.264 17.332 112.904 17.896 112.688 18.688C112.472 19.456 112.364 20.5 112.364 21.82C112.364 23.164 112.448 24.256 112.616 25.096C112.808 25.912 113.156 26.512 113.66 26.896C114.164 27.256 114.92 27.436 115.928 27.436ZM127.776 31V6.412H143.652V10.588H132.744V18.004H141.672V22.18H132.744V31H127.776ZM146.655 31V6.412H151.623V31H146.655ZM160.934 31V10.624H154.31V6.412H172.31V10.624H165.902V31H160.934Z" fill="#1D4ED8"/>
<path d="M74.912 51V42.953H72.169V42.017H78.669V42.953H75.952V51H74.912ZM78.687 51V44.5H79.688V45.371C79.8526 45.2583 80.0606 45.137 80.312 45.007C80.5633 44.8683 80.8406 44.7383 81.144 44.617C81.4473 44.4957 81.7506 44.409 82.054 44.357V45.384C81.7593 45.4447 81.4603 45.527 81.157 45.631C80.8536 45.7263 80.572 45.8303 80.312 45.943C80.0606 46.0557 79.8526 46.1553 79.688 46.242V51H78.687ZM84.6108 51.13C84.0128 51.13 83.5578 50.961 83.2458 50.623C82.9338 50.285 82.7778 49.791 82.7778 49.141C82.7778 48.7163 82.8515 48.3697 82.9988 48.101C83.1461 47.8323 83.3671 47.6287 83.6618 47.49C83.9651 47.3427 84.3378 47.2517 84.7798 47.217L86.7818 47.022V46.463C86.7818 46.021 86.6821 45.709 86.4828 45.527C86.2921 45.345 86.0061 45.254 85.6248 45.254C85.4081 45.254 85.1481 45.2627 84.8448 45.28C84.5501 45.2973 84.2555 45.319 83.9608 45.345C83.6661 45.371 83.4061 45.397 83.1808 45.423L83.1288 44.656C83.3368 44.6127 83.5881 44.5693 83.8828 44.526C84.1775 44.4827 84.4851 44.448 84.8058 44.422C85.1265 44.3873 85.4211 44.37 85.6898 44.37C86.1838 44.37 86.5868 44.448 86.8988 44.604C87.2108 44.7513 87.4361 44.981 87.5748 45.293C87.7221 45.5963 87.7958 45.9863 87.7958 46.463V49.752C87.8131 49.9427 87.8868 50.0813 88.0168 50.168C88.1555 50.2547 88.3288 50.311 88.5368 50.337L88.4978 51.13C88.3765 51.13 88.2595 51.1257 88.1468 51.117C88.0341 51.1083 87.9258 51.091 87.8218 51.065C87.7265 51.0477 87.6311 51.026 87.5358 51C87.4231 50.9567 87.3148 50.9047 87.2108 50.844C87.1155 50.7833 87.0201 50.7097 86.9248 50.623C86.7601 50.6923 86.5478 50.766 86.2878 50.844C86.0365 50.922 85.7635 50.987 85.4688 51.039C85.1828 51.0997 84.8968 51.13 84.6108 51.13ZM84.7798 50.285C85.0138 50.285 85.2565 50.2633 85.5078 50.22C85.7591 50.1767 85.9975 50.1247 86.2228 50.064C86.4481 50.0033 86.6345 49.947 86.7818 49.895V47.776L84.8968 47.958C84.5068 47.9927 84.2251 48.1053 84.0518 48.296C83.8871 48.4867 83.8048 48.7597 83.8048 49.115C83.8048 49.479 83.8871 49.765 84.0518 49.973C84.2165 50.181 84.4591 50.285 84.7798 50.285ZM89.7192 51V44.5H90.7202V51H89.7192ZM89.7192 43.07V41.9H90.7202V43.07H89.7192ZM92.5883 51V44.5H93.5893V44.955C93.7367 44.8683 93.9187 44.7817 94.1353 44.695C94.3607 44.6083 94.599 44.5347 94.8503 44.474C95.1017 44.4047 95.3443 44.37 95.5783 44.37C96.029 44.37 96.3973 44.4307 96.6833 44.552C96.9693 44.6647 97.1903 44.851 97.3463 45.111C97.511 45.3623 97.6237 45.6917 97.6843 46.099C97.7537 46.4977 97.7883 46.983 97.7883 47.555V51H96.7743V47.594C96.7743 47.0307 96.7397 46.58 96.6703 46.242C96.6097 45.904 96.4797 45.6613 96.2803 45.514C96.0897 45.358 95.795 45.28 95.3963 45.28C95.1797 45.28 94.9543 45.306 94.7203 45.358C94.495 45.4013 94.2827 45.462 94.0833 45.54C93.884 45.6093 93.7193 45.6787 93.5893 45.748V51H92.5883ZM101.884 51.13C101.234 51.13 100.719 51.0043 100.337 50.753C99.9648 50.5017 99.6961 50.129 99.5315 49.635C99.3668 49.141 99.2845 48.5257 99.2845 47.789C99.2845 46.9657 99.3971 46.307 99.6225 45.813C99.8478 45.3103 100.164 44.9463 100.571 44.721C100.979 44.487 101.46 44.37 102.014 44.37C102.881 44.37 103.535 44.6127 103.977 45.098C104.419 45.5747 104.64 46.346 104.64 47.412L104.588 48.179H100.311C100.32 48.855 100.446 49.3663 100.688 49.713C100.931 50.0597 101.369 50.233 102.001 50.233C102.244 50.233 102.508 50.2287 102.794 50.22C103.089 50.2027 103.379 50.1853 103.665 50.168C103.951 50.1507 104.194 50.1333 104.393 50.116L104.419 50.909C104.211 50.9437 103.956 50.9783 103.652 51.013C103.358 51.0477 103.054 51.0737 102.742 51.091C102.43 51.117 102.144 51.13 101.884 51.13ZM100.311 47.36H103.626C103.626 46.5627 103.496 46.008 103.236 45.696C102.985 45.3753 102.578 45.215 102.014 45.215C101.65 45.215 101.343 45.2887 101.091 45.436C100.84 45.5747 100.645 45.8 100.506 46.112C100.376 46.424 100.311 46.84 100.311 47.36ZM106.147 51V44.5H107.148V45.371C107.313 45.2583 107.521 45.137 107.772 45.007C108.023 44.8683 108.301 44.7383 108.604 44.617C108.907 44.4957 109.211 44.409 109.514 44.357V45.384C109.219 45.4447 108.92 45.527 108.617 45.631C108.314 45.7263 108.032 45.8303 107.772 45.943C107.521 46.0557 107.313 46.1553 107.148 46.242V51H106.147ZM113.666 51V42.017H116.877C117.536 42.017 118.082 42.1253 118.515 42.342C118.949 42.55 119.291 42.849 119.542 43.239C119.794 43.6203 119.971 44.0797 120.075 44.617C120.179 45.1457 120.231 45.7307 120.231 46.372C120.231 47.022 120.179 47.6287 120.075 48.192C119.98 48.7467 119.807 49.2363 119.555 49.661C119.304 50.0857 118.962 50.415 118.528 50.649C118.095 50.883 117.545 51 116.877 51H113.666ZM114.706 50.077H116.877C117.345 50.077 117.727 49.9773 118.021 49.778C118.316 49.5787 118.546 49.3057 118.71 48.959C118.875 48.6123 118.988 48.218 119.048 47.776C119.118 47.334 119.152 46.866 119.152 46.372C119.152 45.8867 119.118 45.436 119.048 45.02C118.988 44.604 118.875 44.24 118.71 43.928C118.546 43.616 118.316 43.3733 118.021 43.2C117.727 43.0267 117.345 42.94 116.877 42.94H114.706V50.077ZM123.293 51.13C122.695 51.13 122.24 50.961 121.928 50.623C121.616 50.285 121.46 49.791 121.46 49.141C121.46 48.7163 121.534 48.3697 121.681 48.101C121.829 47.8323 122.05 47.6287 122.344 47.49C122.648 47.3427 123.02 47.2517 123.462 47.217L125.464 47.022V46.463C125.464 46.021 125.365 45.709 125.165 45.527C124.975 45.345 124.689 45.254 124.307 45.254C124.091 45.254 123.831 45.2627 123.527 45.28C123.233 45.2973 122.938 45.319 122.643 45.345C122.349 45.371 122.089 45.397 121.863 45.423L121.811 44.656C122.019 44.6127 122.271 44.5693 122.565 44.526C122.86 44.4827 123.168 44.448 123.488 44.422C123.809 44.3873 124.104 44.37 124.372 44.37C124.866 44.37 125.269 44.448 125.581 44.604C125.893 44.7513 126.119 44.981 126.257 45.293C126.405 45.5963 126.478 45.9863 126.478 46.463V49.752C126.496 49.9427 126.569 50.0813 126.699 50.168C126.838 50.2547 127.011 50.311 127.219 50.337L127.18 51.13C127.059 51.13 126.942 51.1257 126.829 51.117C126.717 51.1083 126.608 51.091 126.504 51.065C126.409 51.0477 126.314 51.026 126.218 51C126.106 50.9567 125.997 50.9047 125.893 50.844C125.798 50.7833 125.703 50.7097 125.607 50.623C125.443 50.6923 125.23 50.766 124.97 50.844C124.719 50.922 124.446 50.987 124.151 51.039C123.865 51.0997 123.579 51.13 123.293 51.13ZM123.462 50.285C123.696 50.285 123.939 50.2633 124.19 50.22C124.442 50.1767 124.68 50.1247 124.905 50.064C125.131 50.0033 125.317 49.947 125.464 49.895V47.776L123.579 47.958C123.189 47.9927 122.908 48.1053 122.734 48.296C122.57 48.4867 122.487 48.7597 122.487 49.115C122.487 49.479 122.57 49.765 122.734 49.973C122.899 50.181 123.142 50.285 123.462 50.285ZM130.43 51.13C130.23 51.13 129.988 51.117 129.702 51.091C129.424 51.065 129.147 51.0347 128.87 51C128.592 50.9567 128.345 50.9177 128.129 50.883L128.181 50.012C128.397 50.038 128.64 50.0683 128.909 50.103C129.186 50.1377 129.455 50.168 129.715 50.194C129.975 50.2113 130.183 50.22 130.339 50.22C130.694 50.22 130.989 50.1897 131.223 50.129C131.457 50.0597 131.634 49.947 131.756 49.791C131.877 49.635 131.938 49.414 131.938 49.128C131.938 48.9113 131.89 48.7423 131.795 48.621C131.708 48.4997 131.539 48.4 131.288 48.322C131.045 48.244 130.69 48.1703 130.222 48.101C129.736 48.023 129.329 47.9277 129 47.815C128.679 47.6937 128.441 47.516 128.285 47.282C128.129 47.048 128.051 46.7143 128.051 46.281C128.051 45.7957 128.163 45.4143 128.389 45.137C128.614 44.8597 128.904 44.6647 129.26 44.552C129.624 44.4307 130.001 44.37 130.391 44.37C130.633 44.37 130.898 44.383 131.184 44.409C131.478 44.435 131.764 44.4697 132.042 44.513C132.319 44.5477 132.557 44.5823 132.757 44.617L132.731 45.488C132.523 45.4533 132.28 45.423 132.003 45.397C131.725 45.3623 131.448 45.3363 131.171 45.319C130.893 45.293 130.651 45.28 130.443 45.28C130.183 45.28 129.949 45.3103 129.741 45.371C129.533 45.423 129.368 45.5183 129.247 45.657C129.125 45.7957 129.065 45.9907 129.065 46.242C129.065 46.4327 129.108 46.5887 129.195 46.71C129.281 46.8227 129.446 46.918 129.689 46.996C129.931 47.074 130.282 47.152 130.742 47.23C131.279 47.3167 131.708 47.425 132.029 47.555C132.358 47.685 132.596 47.867 132.744 48.101C132.891 48.335 132.965 48.6643 132.965 49.089C132.965 49.5917 132.861 49.9947 132.653 50.298C132.453 50.5927 132.163 50.805 131.782 50.935C131.409 51.065 130.958 51.13 130.43 51.13ZM134.457 51V41.679H135.458V44.851C135.614 44.7817 135.801 44.7123 136.017 44.643C136.243 44.565 136.481 44.5 136.732 44.448C136.984 44.396 137.222 44.37 137.447 44.37C137.898 44.37 138.266 44.4307 138.552 44.552C138.838 44.6647 139.059 44.851 139.215 45.111C139.38 45.3623 139.493 45.6917 139.553 46.099C139.614 46.4977 139.644 46.983 139.644 47.555V51H138.63V47.594C138.63 47.0307 138.596 46.58 138.526 46.242C138.466 45.904 138.34 45.6613 138.149 45.514C137.959 45.358 137.664 45.28 137.265 45.28C137.049 45.28 136.823 45.3017 136.589 45.345C136.364 45.3797 136.152 45.4273 135.952 45.488C135.753 45.5487 135.588 45.605 135.458 45.657V51H134.457ZM143.637 51.13C143.446 51.13 143.216 51.1213 142.948 51.104C142.688 51.0953 142.423 51.078 142.155 51.052C141.886 51.026 141.648 51.0043 141.44 50.987V41.679H142.454V44.812C142.592 44.7427 142.766 44.6777 142.974 44.617C143.182 44.5477 143.403 44.4913 143.637 44.448C143.879 44.396 144.109 44.37 144.326 44.37C144.915 44.37 145.383 44.4827 145.73 44.708C146.085 44.9247 146.336 45.2757 146.484 45.761C146.64 46.2377 146.718 46.866 146.718 47.646C146.718 48.5127 146.622 49.2017 146.432 49.713C146.25 50.2157 145.933 50.5797 145.483 50.805C145.041 51.0217 144.425 51.13 143.637 51.13ZM143.624 50.22C144.213 50.22 144.651 50.1333 144.937 49.96C145.231 49.778 145.426 49.4963 145.522 49.115C145.626 48.7337 145.678 48.244 145.678 47.646C145.678 47.0913 145.634 46.6407 145.548 46.294C145.461 45.9473 145.309 45.6917 145.093 45.527C144.885 45.3623 144.594 45.28 144.222 45.28C144.014 45.28 143.797 45.3017 143.572 45.345C143.346 45.3797 143.134 45.4273 142.935 45.488C142.744 45.54 142.584 45.592 142.454 45.644V50.155C142.636 50.1723 142.844 50.1897 143.078 50.207C143.32 50.2157 143.502 50.22 143.624 50.22ZM150.804 51.13C150.076 51.13 149.508 51.0043 149.101 50.753C148.702 50.5017 148.421 50.1203 148.256 49.609C148.1 49.0977 148.022 48.452 148.022 47.672C148.022 46.9267 148.109 46.3113 148.282 45.826C148.464 45.3407 148.759 44.9767 149.166 44.734C149.573 44.4913 150.119 44.37 150.804 44.37C151.497 44.37 152.048 44.4913 152.455 44.734C152.862 44.9767 153.153 45.3407 153.326 45.826C153.508 46.3113 153.599 46.9267 153.599 47.672C153.599 48.452 153.517 49.0977 153.352 49.609C153.196 50.1203 152.914 50.5017 152.507 50.753C152.108 51.0043 151.541 51.13 150.804 51.13ZM150.804 50.259C151.307 50.259 151.684 50.1723 151.935 49.999C152.186 49.817 152.351 49.5353 152.429 49.154C152.516 48.7727 152.559 48.2787 152.559 47.672C152.559 47.074 152.507 46.5973 152.403 46.242C152.299 45.8867 152.121 45.631 151.87 45.475C151.619 45.319 151.263 45.241 150.804 45.241C150.353 45.241 149.998 45.319 149.738 45.475C149.487 45.631 149.309 45.8867 149.205 46.242C149.101 46.5973 149.049 47.074 149.049 47.672C149.049 48.2787 149.088 48.7727 149.166 49.154C149.253 49.5353 149.422 49.817 149.673 49.999C149.924 50.1723 150.301 50.259 150.804 50.259ZM156.606 51.13C156.008 51.13 155.553 50.961 155.241 50.623C154.929 50.285 154.773 49.791 154.773 49.141C154.773 48.7163 154.847 48.3697 154.994 48.101C155.141 47.8323 155.362 47.6287 155.657 47.49C155.96 47.3427 156.333 47.2517 156.775 47.217L158.777 47.022V46.463C158.777 46.021 158.677 45.709 158.478 45.527C158.287 45.345 158.001 45.254 157.62 45.254C157.403 45.254 157.143 45.2627 156.84 45.28C156.545 45.2973 156.251 45.319 155.956 45.345C155.661 45.371 155.401 45.397 155.176 45.423L155.124 44.656C155.332 44.6127 155.583 44.5693 155.878 44.526C156.173 44.4827 156.48 44.448 156.801 44.422C157.122 44.3873 157.416 44.37 157.685 44.37C158.179 44.37 158.582 44.448 158.894 44.604C159.206 44.7513 159.431 44.981 159.57 45.293C159.717 45.5963 159.791 45.9863 159.791 46.463V49.752C159.808 49.9427 159.882 50.0813 160.012 50.168C160.151 50.2547 160.324 50.311 160.532 50.337L160.493 51.13C160.372 51.13 160.255 51.1257 160.142 51.117C160.029 51.1083 159.921 51.091 159.817 51.065C159.722 51.0477 159.626 51.026 159.531 51C159.418 50.9567 159.31 50.9047 159.206 50.844C159.111 50.7833 159.015 50.7097 158.92 50.623C158.755 50.6923 158.543 50.766 158.283 50.844C158.032 50.922 157.759 50.987 157.464 51.039C157.178 51.0997 156.892 51.13 156.606 51.13ZM156.775 50.285C157.009 50.285 157.252 50.2633 157.503 50.22C157.754 50.1767 157.993 50.1247 158.218 50.064C158.443 50.0033 158.63 49.947 158.777 49.895V47.776L156.892 47.958C156.502 47.9927 156.22 48.1053 156.047 48.296C155.882 48.4867 155.8 48.7597 155.8 49.115C155.8 49.479 155.882 49.765 156.047 49.973C156.212 50.181 156.454 50.285 156.775 50.285ZM161.714 51V44.5H162.715V45.371C162.88 45.2583 163.088 45.137 163.339 45.007C163.591 44.8683 163.868 44.7383 164.171 44.617C164.475 44.4957 164.778 44.409 165.081 44.357V45.384C164.787 45.4447 164.488 45.527 164.184 45.631C163.881 45.7263 163.599 45.8303 163.339 45.943C163.088 46.0557 162.88 46.1553 162.715 46.242V51H161.714ZM168.123 51.13C167.863 51.13 167.616 51.0997 167.382 51.039C167.148 50.987 166.931 50.8917 166.732 50.753C166.541 50.6143 166.372 50.4237 166.225 50.181C166.077 49.9297 165.965 49.609 165.887 49.219C165.809 48.829 165.77 48.3567 165.77 47.802C165.77 47.0307 165.861 46.3937 166.043 45.891C166.225 45.3797 166.515 44.9983 166.914 44.747C167.312 44.4957 167.841 44.37 168.5 44.37C168.664 44.37 168.846 44.3787 169.046 44.396C169.245 44.4133 169.436 44.435 169.618 44.461C169.808 44.487 169.96 44.513 170.073 44.539V41.679H171.087V51H170.086V50.571C169.947 50.649 169.765 50.7313 169.54 50.818C169.323 50.9047 169.089 50.9783 168.838 51.039C168.595 51.0997 168.357 51.13 168.123 51.13ZM168.253 50.22C168.478 50.22 168.703 50.194 168.929 50.142C169.163 50.09 169.379 50.0293 169.579 49.96C169.778 49.882 169.943 49.8127 170.073 49.752V45.397C169.969 45.3797 169.826 45.3623 169.644 45.345C169.462 45.319 169.271 45.2973 169.072 45.28C168.881 45.2627 168.708 45.254 168.552 45.254C168.11 45.254 167.763 45.3493 167.512 45.54C167.26 45.7307 167.078 46.0167 166.966 46.398C166.862 46.7707 166.81 47.2387 166.81 47.802C166.81 48.322 166.849 48.7423 166.927 49.063C167.005 49.375 167.109 49.6177 167.239 49.791C167.377 49.9557 167.533 50.0683 167.707 50.129C167.88 50.1897 168.062 50.22 168.253 50.22Z" fill="#1D4ED8"/>
<defs>
<clipPath id="clip0_4064_8629">
<rect width="42.9845" height="28.1226" fill="white" transform="translate(6.71997 14)"/>
</clipPath>
</defs>
</svg>
