<svg width="18" height="21" viewBox="0 0 18 21" fill="none" xmlns="http://www.w3.org/2000/svg">
<path d="M9.00001 5.5991C7.56367 5.5991 6.89343 4.47974 5.05631 5.03939C2.15363 6.15878 0.573657 9.36014 1.10035 12.3152C1.62699 14.9569 2.86853 17.4998 4.78685 19.0314C6.10727 20.0857 7.2213 19.0314 9.00001 19.0314C10.7787 19.0314 11.8927 20.0857 13.2132 19.0314C15.1315 17.4998 16.373 14.9569 16.8997 12.3152C17.4263 9.36014 15.8464 6.15878 12.9437 5.03939C11.1066 4.47973 10.4363 5.5991 9.00001 5.5991ZM9.00001 5.5991C8.86427 3.70564 9 3 8 1" stroke="#1D4ED8" stroke-width="1.5" stroke-linecap="round"/>
</svg>
