<svg width="20" height="21" viewBox="0 0 20 21" fill="none" xmlns="http://www.w3.org/2000/svg">
<path d="M4.75 1.5C1.88235 1.5 1 2.38235 1 5.25C1 8.11765 1.88235 9 4.75 9C7.61765 9 8.5 8.11765 8.5 5.25C8.5 2.38235 7.61765 1.5 4.75 1.5Z" stroke="#1D4ED8" stroke-width="1.5" stroke-linecap="round" stroke-linejoin="round"/>
<path d="M4.75 12C1.88235 12 1 12.8824 1 15.75C1 18.6176 1.88235 19.5 4.75 19.5C7.61765 19.5 8.5 18.6176 8.5 15.75C8.5 12.8824 7.61765 12 4.75 12Z" stroke="#1D4ED8" stroke-width="1.5" stroke-linecap="round" stroke-linejoin="round"/>
<path d="M15.25 12C12.3824 12 11.5 12.8824 11.5 15.75C11.5 18.6176 12.3824 19.5 15.25 19.5C18.1176 19.5 19 18.6176 19 15.75C19 12.8824 18.1176 12 15.25 12Z" stroke="#1D4ED8" stroke-width="1.5" stroke-linecap="round" stroke-linejoin="round"/>
<path d="M15.25 1.5C12.3824 1.5 11.5 2.38235 11.5 5.25C11.5 8.11765 12.3824 9 15.25 9C18.1176 9 19 8.11765 19 5.25C19 2.38235 18.1176 1.5 15.25 1.5Z" stroke="#1D4ED8" stroke-width="1.5" stroke-linecap="round" stroke-linejoin="round"/>
</svg>
