<svg width="15" height="14" viewBox="0 0 15 14" fill="none" xmlns="http://www.w3.org/2000/svg">
<path d="M7.50033 2.91675C4.35733 2.91675 1.66699 6.02941 1.66699 7.00008C1.66699 8.01625 3.73549 11.0834 7.50033 11.0834C11.2652 11.0834 13.3337 8.01625 13.3337 7.00008C13.3337 6.02941 10.6433 2.91675 7.50033 2.91675ZM7.50033 8.75008C7.15421 8.75008 6.81586 8.64745 6.52808 8.45515C6.24029 8.26286 6.01599 7.98955 5.88354 7.66978C5.75108 7.35001 5.71643 6.99814 5.78395 6.65867C5.85148 6.31921 6.01815 6.00739 6.26289 5.76264C6.50763 5.5179 6.81945 5.35123 7.15892 5.28371C7.49838 5.21618 7.85025 5.25084 8.17002 5.38329C8.48979 5.51575 8.7631 5.74005 8.9554 6.02783C9.14769 6.31562 9.25033 6.65396 9.25033 7.00008C9.25033 7.46421 9.06595 7.90933 8.73776 8.23752C8.40957 8.56571 7.96445 8.75008 7.50033 8.75008Z" fill="#6B7280"/>
</svg>
