<svg width="20" height="21" viewBox="0 0 20 21" fill="none" xmlns="http://www.w3.org/2000/svg">
<path d="M6 14.5L14 6.5M19 10.5C19 15.4706 14.9706 19.5 10 19.5C5.02944 19.5 1 15.4706 1 10.5C1 5.52944 5.02944 1.5 10 1.5C14.9706 1.5 19 5.52944 19 10.5ZM15 13.5C15 14.6046 14.1046 15.5 13 15.5C11.8954 15.5 11 14.6046 11 13.5C11 12.3954 11.8954 11.5 13 11.5C14.1046 11.5 15 12.3954 15 13.5ZM9 7.5C9 8.60457 8.10457 9.5 7 9.5C5.89543 9.5 5 8.60457 5 7.5C5 6.39543 5.89543 5.5 7 5.5C8.10457 5.5 9 6.39543 9 7.5Z" stroke="#1D4ED8" stroke-width="1.5" stroke-linecap="round" stroke-linejoin="round"/>
</svg>
