<svg width="24" height="17" viewBox="0 0 24 17" fill="none" xmlns="http://www.w3.org/2000/svg">
<path d="M19 10.5C21.2091 10.5 23 12.5 23 14C23 14.8284 22.3284 15.5 21.5 15.5H21M17 7.5C18.6569 7.5 20 6.15685 20 4.5C20 2.84315 18.6569 1.5 17 1.5M5 10.5C2.79086 10.5 1 12.5 1 14C1 14.8284 1.67157 15.5 2.5 15.5H3M7 7.5C5.34315 7.5 4 6.15685 4 4.5C4 2.84315 5.34315 1.5 7 1.5M16.5 15.5H7.5C6.67157 15.5 6 14.8284 6 14C6 11.5 9 10.5 12 10.5C15 10.5 18 11.5 18 14C18 14.8284 17.3284 15.5 16.5 15.5ZM15 4.5C15 6.15685 13.6569 7.5 12 7.5C10.3431 7.5 9 6.15685 9 4.5C9 2.84315 10.3431 1.5 12 1.5C13.6569 1.5 15 2.84315 15 4.5Z" stroke="#1D4ED8" stroke-width="1.5" stroke-linecap="round" stroke-linejoin="round"/>
</svg>
