<svg width="779" height="558" viewBox="0 0 779 558" fill="none" xmlns="http://www.w3.org/2000/svg">
<g opacity="0.0636858">
<mask id="mask0_6459_4300" style="mask-type:luminance" maskUnits="userSpaceOnUse" x="47" y="24" width="733" height="535">
<path fill-rule="evenodd" clip-rule="evenodd" d="M47.1706 24.821H779V558H47.1706V24.821Z" fill="white"/>
</mask>
<g mask="url(#mask0_6459_4300)">
<path fill-rule="evenodd" clip-rule="evenodd" d="M777.667 246.541C777.896 242.738 775.474 239.169 771.193 236.994L359.403 27.7701C356.085 26.0828 352.061 25.4388 348.076 25.9551C344.093 26.4731 340.622 28.0891 338.31 30.5082L51.2138 330.459C49.5672 332.179 48.6298 334.193 48.5049 336.28C48.2778 340.083 50.6986 343.651 54.978 345.828L466.767 555.052C470.089 556.739 474.108 557.383 478.096 556.867C482.079 556.347 485.55 554.734 487.863 552.314L774.958 252.364C776.607 250.643 777.542 248.628 777.667 246.541ZM47.1871 336.238C47.3242 333.968 48.3435 331.781 50.1341 329.91L337.227 29.9589C339.743 27.3302 343.514 25.573 347.846 25.01C352.177 24.4483 356.549 25.1487 360.158 26.9819L771.949 236.207C776.602 238.572 779.232 242.451 778.985 246.584C778.847 248.853 777.83 251.041 776.038 252.913L488.943 552.863C486.428 555.492 482.659 557.248 478.327 557.811C473.997 558.374 469.624 557.672 466.013 555.839L54.2259 346.614C49.5725 344.251 46.9397 340.371 47.1871 336.238Z" fill="#e6e3e3"/>
</g>
<path fill-rule="evenodd" clip-rule="evenodd" d="M758.538 243.516C758.759 239.868 756.458 236.422 752.39 234.298L354.573 26.6505C351.371 24.9773 347.465 24.3137 343.577 24.7808C339.688 25.2488 336.284 26.7918 333.988 29.1252L49.055 318.895C47.3835 320.597 46.4333 322.595 46.309 324.675C46.0906 328.325 48.3894 331.771 52.4597 333.892L450.275 541.543C456.891 544.992 466.124 543.884 470.859 539.068L755.792 249.296C757.466 247.595 758.415 245.595 758.538 243.516ZM44.993 324.632C45.1271 322.367 46.1627 320.189 47.9847 318.336L332.918 28.5668C335.417 26.0243 339.127 24.3442 343.362 23.8343C347.597 23.3252 351.851 24.0481 355.341 25.8694L753.156 233.519C757.591 235.832 760.094 239.584 759.857 243.557C759.719 245.824 758.687 248.003 756.863 249.855L471.929 539.625C466.771 544.872 456.709 546.082 449.507 542.323L51.6914 334.673C47.2599 332.361 44.7543 328.607 44.993 324.632Z" fill="#e6e3e3"/>
<path fill-rule="evenodd" clip-rule="evenodd" d="M739.411 240.49C739.619 236.997 737.44 233.673 733.584 231.602L349.742 25.5305C343.368 22.1089 334.363 23.1021 329.666 27.7443L46.8958 307.334C45.1963 309.012 44.2322 310.998 44.1079 313.074C43.8988 316.567 46.078 319.889 49.9369 321.959L433.775 528.033C436.866 529.69 440.652 530.372 444.445 529.954C448.239 529.537 451.58 528.067 453.855 525.819L736.625 246.228C738.324 244.55 739.288 242.565 739.411 240.49ZM42.7915 313.029C42.9274 310.763 43.9781 308.597 45.8332 306.765L328.605 27.1746C333.732 22.1056 343.564 21.0216 350.522 24.7572L734.363 230.828C738.577 233.091 740.956 236.719 740.727 240.532C740.593 242.798 739.541 244.964 737.686 246.798L454.915 526.388C452.43 528.843 448.785 530.447 444.643 530.903C440.504 531.36 436.367 530.615 432.997 528.806L49.1554 322.733C44.9434 320.471 42.5633 316.844 42.7915 313.029Z" fill="#e6e3e3"/>
<path fill-rule="evenodd" clip-rule="evenodd" d="M720.291 237.463C720.489 234.122 718.428 230.924 714.779 228.905L344.912 24.4102C341.938 22.7671 338.268 22.0654 334.572 22.434C330.878 22.8023 327.6 24.1977 325.347 26.3627L44.7337 295.773C43.0082 297.432 42.0295 299.401 41.9058 301.471C41.706 304.81 43.7655 308.008 47.4165 310.027L417.286 514.522C423.418 517.911 432.195 517.037 436.85 512.571L717.463 243.16C719.189 241.503 720.166 239.533 720.291 237.463ZM40.5907 301.427C40.7248 299.162 41.7958 297.005 43.6852 295.192L324.296 25.7823C326.764 23.4132 330.35 21.8867 334.393 21.4824C338.437 21.0794 342.454 21.8477 345.708 23.6453L715.574 228.141C719.57 230.35 721.824 233.85 721.606 237.505C721.469 239.771 720.402 241.928 718.511 243.741L437.9 513.151C432.805 518.039 423.201 518.999 416.488 515.287L46.6218 310.791C42.6258 308.582 40.3711 305.084 40.5907 301.427Z" fill="#e6e3e3"/>
<path fill-rule="evenodd" clip-rule="evenodd" d="M701.167 234.437C701.358 231.249 699.415 228.173 695.97 226.208L340.079 23.2893C337.223 21.6618 333.668 20.9406 330.069 21.2605C326.469 21.58 323.258 22.9011 321.023 24.9812L42.5718 284.211C40.816 285.844 39.824 287.798 39.7003 289.865C39.5092 293.053 41.4531 296.129 44.8973 298.094L400.789 501.013C403.647 502.64 407.199 503.361 410.799 503.041C414.398 502.723 417.611 501.4 419.846 499.321L698.296 240.091C700.053 238.459 701.044 236.503 701.167 234.437ZM38.384 289.822C38.521 287.554 39.6089 285.412 41.5343 283.617L319.986 24.3893C322.437 22.1077 325.962 20.658 329.909 20.308C333.858 19.9571 337.757 20.7475 340.891 22.5341L696.781 225.453C700.561 227.607 702.693 230.982 702.484 234.479C702.348 236.746 701.259 238.891 699.337 240.684L420.884 499.912C418.432 502.197 414.907 503.646 410.959 503.994C407.011 504.347 403.11 503.555 399.98 501.769L44.0852 298.85C40.3064 296.695 38.1755 293.32 38.384 289.822Z" fill="#e6e3e3"/>
<path fill-rule="evenodd" clip-rule="evenodd" d="M682.051 231.411C682.232 228.374 680.406 225.422 677.165 223.513L335.246 22.1694C329.59 18.839 321.271 19.4805 316.702 23.6L40.4087 272.651C38.6262 274.258 37.615 276.199 37.4913 278.261C37.3089 281.3 39.1373 284.251 42.3782 286.16L384.296 487.502C387.037 489.118 390.475 489.856 393.975 489.587C397.48 489.315 400.629 488.068 402.841 486.073L679.134 237.023C680.919 235.414 681.929 233.473 682.051 231.411ZM36.175 278.22C36.3097 275.951 37.4208 273.817 39.3845 272.047L315.675 22.9968C320.701 18.4657 329.851 17.7598 336.073 21.4224L677.993 222.767C681.557 224.864 683.566 228.112 683.367 231.453C683.232 233.721 682.121 235.856 680.158 237.627L403.866 486.675C401.432 488.871 397.966 490.243 394.116 490.54C390.262 490.839 386.481 490.026 383.468 488.249L41.5498 286.907C37.9836 284.808 35.9746 281.56 36.175 278.22Z" fill="#e6e3e3"/>
<path fill-rule="evenodd" clip-rule="evenodd" d="M662.936 228.384C663.114 225.455 661.443 222.695 658.358 220.815L330.414 21.0476C327.788 19.4503 324.47 18.6913 321.062 18.9127C317.655 19.1338 314.572 20.3085 312.379 22.2198L38.2473 261.089C36.4282 262.674 35.4019 264.598 35.2794 266.656C35.1046 269.587 36.7761 272.348 39.8602 274.227L367.805 473.995C373.222 477.295 381.311 476.769 385.839 472.822L659.969 233.954C661.787 232.369 662.814 230.444 662.936 228.384ZM33.9645 266.613C34.0987 264.345 35.2306 262.221 37.2356 260.472L311.367 21.6038C313.787 19.4953 317.187 18.2 320.945 17.9569C324.702 17.7126 328.365 18.5496 331.259 20.312L659.202 220.078C662.605 222.151 664.446 225.193 664.254 228.427C664.118 230.699 662.986 232.822 660.979 234.568L386.85 473.439C381.855 477.791 372.933 478.369 366.958 474.731L39.0146 274.966C35.6105 272.891 33.7693 269.848 33.9645 266.613Z" fill="#e6e3e3"/>
<path fill-rule="evenodd" clip-rule="evenodd" d="M643.828 225.359C643.994 222.577 642.436 219.939 639.551 218.116L325.581 19.9282C323.073 18.3432 319.869 17.5655 316.556 17.7386C313.246 17.9108 310.227 19.0114 308.053 20.8386L36.0859 249.527C34.2308 251.087 33.1865 252.997 33.0634 255.053C32.8967 257.835 34.4567 260.475 37.3404 262.297L351.309 460.486C353.82 462.069 357.024 462.846 360.335 462.674C363.644 462.503 366.662 461.402 368.836 459.575L640.805 230.885C642.66 229.327 643.706 227.416 643.828 225.359ZM31.7468 255.012C31.8827 252.737 33.0402 250.624 35.0899 248.9L307.057 20.2105C309.461 18.1889 312.802 16.9713 316.463 16.7813C320.126 16.5903 323.67 17.4503 326.444 19.2021L640.411 217.391C643.605 219.406 645.326 222.326 645.145 225.402C645.007 227.676 643.853 229.789 641.803 231.515L369.832 460.202C367.43 462.225 364.09 463.442 360.429 463.634C356.767 463.822 353.222 462.964 350.449 461.211L36.478 263.022C33.2865 261.007 31.5638 258.088 31.7468 255.012Z" fill="#e6e3e3"/>
<path fill-rule="evenodd" clip-rule="evenodd" d="M624.723 222.333C624.881 219.7 623.43 217.18 620.742 215.418L320.746 18.8042C318.355 17.2357 315.267 16.4407 312.052 16.5646C308.839 16.6876 305.882 17.7152 303.731 19.4584L33.922 237.968C32.057 239.476 30.9639 241.424 30.8426 243.449C30.6863 246.082 32.1372 248.603 34.8234 250.364L334.819 446.979C337.209 448.545 340.298 449.342 343.515 449.219C346.726 449.095 349.682 448.068 351.836 446.326L621.643 227.816C623.509 226.307 624.603 224.358 624.723 222.333ZM29.5253 243.408C29.6612 241.16 30.8721 238.999 32.9421 237.326L302.75 18.8163C305.137 16.8834 308.417 15.7422 311.983 15.6052C315.549 15.4681 318.974 16.3518 321.629 18.0913L621.624 214.705C624.604 216.658 626.213 219.454 626.038 222.375C625.903 224.622 624.69 226.781 622.623 228.458L352.814 446.967C350.427 448.899 347.148 450.041 343.582 450.177C340.018 450.314 336.591 449.432 333.937 447.691L33.9411 251.076C30.9599 249.124 29.3522 246.328 29.5253 243.408Z" fill="#e6e3e3"/>
<path fill-rule="evenodd" clip-rule="evenodd" d="M605.625 219.307C605.773 216.82 604.429 214.419 601.936 212.719L315.915 17.6827C313.637 16.1291 310.664 15.3146 307.548 15.3901C304.43 15.4652 301.538 16.4197 299.405 18.0794L31.759 226.408C29.8551 227.889 28.7399 229.821 28.6186 231.847C28.4705 234.334 29.8144 236.735 32.3044 238.435L318.327 433.47C323.028 436.677 330.435 436.5 334.836 433.075L602.484 224.746C604.388 223.264 605.503 221.333 605.625 219.307ZM27.3011 231.805C27.437 229.551 28.6782 227.4 30.7953 225.752L298.443 17.4235C300.815 15.5767 304.032 14.5139 307.502 14.4308C310.972 14.3476 314.279 15.253 316.814 16.9823L602.836 212.019C605.61 213.91 607.104 216.581 606.94 219.349C606.804 221.603 605.564 223.752 603.445 225.403L335.796 433.731C330.899 437.543 322.657 437.74 317.426 434.171L31.4045 239.135C28.6318 237.244 27.1368 234.571 27.3011 231.805Z" fill="#e6e3e3"/>
<path fill-rule="evenodd" clip-rule="evenodd" d="M586.527 216.281C586.666 213.94 585.428 211.657 583.127 210.02L311.08 16.5588C306.614 13.3841 299.435 13.4473 295.078 16.6997L29.5913 214.848C27.6456 216.298 26.506 218.216 26.3858 220.241C26.2447 222.585 27.4853 224.866 29.787 226.503L301.833 419.965C306.3 423.139 313.476 423.074 317.832 419.823L583.32 221.676C585.265 220.224 586.405 218.307 586.527 216.281ZM25.0704 220.198C25.2045 217.938 26.4771 215.798 28.6487 214.177L294.137 16.0284C299.002 12.398 307.014 12.328 311.998 15.8731L584.046 209.333C586.615 211.16 588 213.708 587.843 216.324C587.709 218.586 586.437 220.726 584.263 222.347L318.775 420.494C313.912 424.125 305.899 424.196 300.912 420.651L28.8683 227.189C26.2982 225.362 24.9141 222.814 25.0704 220.198Z" fill="#e6e3e3"/>
<path fill-rule="evenodd" clip-rule="evenodd" d="M567.436 213.255C567.569 211.055 566.43 208.893 564.317 207.322L306.244 15.436C302.015 12.2927 295.066 12.2405 290.752 15.3193L27.4257 203.286C25.4353 204.708 24.2702 206.608 24.1476 208.638C24.017 210.838 25.1565 213 27.2695 214.572L285.339 406.459C289.569 409.602 296.517 409.653 300.833 406.572L564.159 218.606C566.15 217.185 567.315 215.284 567.436 213.255ZM22.8314 208.596C22.9679 206.324 24.2741 204.195 26.5038 202.602L289.829 14.6337C294.663 11.1845 302.447 11.2434 307.184 14.7643L565.258 206.649C567.627 208.41 568.9 210.833 568.753 213.297C568.617 215.571 567.311 217.699 565.081 219.292L301.756 407.26C296.925 410.709 289.137 410.651 284.401 407.131L26.3273 215.246C23.9599 213.484 22.6844 211.059 22.8314 208.596Z" fill="#e6e3e3"/>
<path fill-rule="evenodd" clip-rule="evenodd" d="M548.355 210.23C548.479 208.14 547.47 206.147 545.508 204.619L301.409 14.3123C299.478 12.8054 296.853 11.9356 294.025 11.8656C291.194 11.7956 288.496 12.533 286.427 13.9407L25.2629 191.728C23.2213 193.117 22.0313 195.001 21.9093 197.034C21.7844 199.123 22.7939 201.116 24.7535 202.645L268.853 392.951C272.845 396.063 279.565 396.228 283.836 393.322L545.002 215.535C547.044 214.147 548.232 212.262 548.355 210.23ZM20.592 196.99C20.7291 194.704 22.0667 192.589 24.3591 191.028L285.527 13.2394C287.853 11.6556 290.885 10.8275 294.069 10.9068C297.25 10.9853 300.198 11.9624 302.374 13.6569L546.47 203.964C548.676 205.682 549.811 207.923 549.672 210.272C549.535 212.558 548.195 214.677 545.899 216.237L284.734 394.025C279.936 397.291 272.377 397.106 267.889 393.609L23.7911 203.3C21.5887 201.58 20.4503 199.342 20.592 196.99Z" fill="#e6e3e3"/>
<path fill-rule="evenodd" clip-rule="evenodd" d="M529.275 207.204C529.393 205.253 528.477 203.378 526.698 201.919L296.573 13.1875C292.817 10.1078 286.323 9.82655 282.096 12.5609L23.0908 180.17C20.9982 181.523 19.779 183.39 19.6577 185.429C19.5415 187.378 20.4568 189.256 22.2364 190.715L252.361 379.446C256.116 382.527 262.608 382.808 266.839 380.072L525.842 212.464C527.935 211.111 529.155 209.242 529.275 207.204ZM18.3403 185.387C18.4785 183.089 19.8556 180.98 22.2177 179.452L281.221 11.8432C285.991 8.75759 293.319 9.07451 297.558 12.5496L527.684 201.282C529.69 202.928 530.725 205.046 530.593 207.246C530.455 209.546 529.078 211.654 526.718 213.182L267.713 380.793C262.941 383.876 255.613 383.56 251.373 380.084L21.2507 191.354C19.2428 189.707 18.209 187.588 18.3403 185.387Z" fill="#e6e3e3"/>
<path fill-rule="evenodd" clip-rule="evenodd" d="M510.206 204.179C510.315 202.367 509.49 200.604 507.887 199.216L291.736 12.0616C290.032 10.5851 287.639 9.68021 285.002 9.51517C282.362 9.34929 279.792 9.94113 277.766 11.1833L20.9213 168.612C18.8042 169.909 17.5218 171.809 17.4004 173.824C17.2924 175.636 18.1142 177.398 19.7184 178.788L235.869 365.943C239.388 368.99 245.657 369.383 249.84 366.82L506.684 209.394C508.801 208.096 510.085 206.195 510.206 204.179ZM16.0831 173.783C16.2201 171.498 17.6745 169.346 20.0715 167.877L276.917 10.4485C279.214 9.04209 282.123 8.37007 285.113 8.55844C288.103 8.74639 290.813 9.77139 292.744 11.4434L508.893 198.598C510.711 200.172 511.643 202.169 511.521 204.22C511.386 206.504 509.931 208.657 507.532 210.128L250.687 367.555C245.948 370.46 238.847 370.013 234.861 366.561L18.7118 179.405C16.8939 177.832 15.9605 175.835 16.0831 173.783Z" fill="#e6e3e3"/>
<path fill-rule="evenodd" clip-rule="evenodd" d="M491.145 201.153C491.245 199.476 490.51 197.829 489.078 196.513L286.9 10.9353C285.308 9.47463 283.031 8.55188 280.488 8.33848C277.945 8.12465 275.441 8.64564 273.438 9.80386L18.7514 157.052C16.5752 158.311 15.2579 160.194 15.1359 162.22C15.0372 163.895 15.7707 165.543 17.2036 166.861L219.378 352.439C222.664 355.455 228.704 355.962 232.845 353.569L487.527 206.323C489.705 205.064 491.024 203.179 491.145 201.153ZM13.8188 162.177C13.9547 159.874 15.4555 157.733 17.9338 156.3L272.616 9.05202C274.897 7.73386 277.745 7.1416 280.638 7.3847C283.531 7.6278 286.121 8.67656 287.932 10.3388L490.108 195.916C491.738 197.413 492.575 199.288 492.46 201.196C492.322 203.499 490.825 205.642 488.347 207.073L233.66 354.322C228.958 357.043 222.085 356.466 218.347 353.036L16.1705 167.459C14.5413 165.959 13.705 164.084 13.8188 162.177Z" fill="#e6e3e3"/>
<path fill-rule="evenodd" clip-rule="evenodd" d="M472.094 198.13C472.186 196.586 471.537 195.051 470.267 193.809L282.065 9.8077C279.013 6.82476 273.199 6.20492 269.103 8.42675L16.5844 145.495C14.3407 146.711 12.984 148.578 12.8626 150.614C12.7714 152.158 13.4207 153.691 14.6892 154.936L202.893 338.938C205.943 341.921 211.757 342.54 215.851 340.318L468.375 203.251C470.618 202.034 471.971 200.168 472.094 198.13ZM11.5453 150.572C11.6841 148.245 13.2349 146.114 15.7957 144.723L268.316 7.65726C272.993 5.11851 279.635 5.82659 283.121 9.23464L471.322 193.236C472.773 194.654 473.517 196.407 473.41 198.172C473.271 200.499 471.722 202.63 469.16 204.022L216.639 341.087C211.961 343.626 205.321 342.917 201.835 339.511L13.6322 155.509C12.1819 154.089 11.4402 152.336 11.5453 150.572Z" fill="#e6e3e3"/>
<path fill-rule="evenodd" clip-rule="evenodd" d="M453.05 195.107C453.135 193.671 452.585 192.287 451.456 191.105L277.228 8.67913C274.41 5.72801 268.822 4.99702 264.77 7.04872L14.408 133.936C12.097 135.108 10.7007 136.956 10.5782 139.008C10.4934 140.443 11.0452 141.826 12.1742 143.008L186.4 325.436C189.218 328.389 194.806 329.119 198.859 327.065L449.221 200.179C451.532 199.008 452.927 197.158 453.05 195.107ZM9.26216 138.965C9.40213 136.613 11.0046 134.491 13.6571 133.148L264.016 6.26113C268.665 3.90694 275.075 4.74526 278.308 8.1304L452.536 190.556C453.831 191.913 454.465 193.5 454.365 195.148C454.225 197.502 452.624 199.623 449.975 200.967L199.61 327.855C194.963 330.209 188.552 329.37 185.319 325.985L11.0923 143.558C9.79592 142.202 9.16342 140.615 9.26216 138.965Z" fill="#e6e3e3"/>
<path fill-rule="evenodd" clip-rule="evenodd" d="M434.021 192.083C434.099 190.775 433.625 189.502 432.645 188.398L272.392 7.54824C269.805 4.63148 264.443 3.78849 260.436 5.67133L12.2354 122.377C9.88426 123.484 8.40611 125.362 8.2853 127.402C8.20747 128.709 8.68373 129.982 9.66239 131.085L169.914 311.937C172.5 314.853 177.862 315.696 181.869 313.812L430.071 197.106C432.421 196 433.897 194.123 434.021 192.083ZM6.96938 127.36C7.10994 125.008 8.81228 122.845 11.5217 121.572L259.722 4.86507C264.337 2.69458 270.518 3.66612 273.499 7.02878L433.751 187.878C434.879 189.15 435.427 190.618 435.337 192.125C435.197 194.475 433.495 196.64 430.784 197.912L182.584 314.619C177.968 316.789 171.788 315.819 168.808 312.457L8.55266 131.608C7.42822 130.335 6.87878 128.867 6.96938 127.36Z" fill="#e6e3e3"/>
<path fill-rule="evenodd" clip-rule="evenodd" d="M414.999 189.059C415.07 187.878 414.666 186.713 413.834 185.691L267.556 6.41769C265.2 3.53232 260.061 2.57902 256.1 4.29344L10.061 110.82C7.6286 111.872 6.10166 113.733 5.97853 115.794C5.90767 116.977 6.31191 118.141 7.14537 119.164L153.424 298.437C155.78 301.323 160.918 302.276 164.877 300.56L410.919 194.034C413.352 192.981 414.876 191.122 414.999 189.059ZM4.66221 115.752C4.80509 113.365 6.57016 111.213 9.38533 109.995L255.425 3.46831C260.012 1.48321 265.96 2.58713 268.685 5.92772L414.964 185.2C415.93 186.384 416.396 187.732 416.315 189.103C416.172 191.489 414.406 193.641 411.592 194.861L165.55 301.387C160.966 303.371 155.016 302.268 152.291 298.928L6.01143 119.655C5.04671 118.472 4.58032 117.121 4.66221 115.752Z" fill="#e6e3e3"/>
<path fill-rule="evenodd" clip-rule="evenodd" d="M395.992 186.039C396.056 184.978 395.721 183.921 395.02 182.983L262.716 5.28609C260.591 2.43255 255.678 1.36936 251.759 2.91662L7.88057 99.2613C5.36219 100.257 3.78414 102.097 3.65927 104.186C3.59538 105.247 3.93051 106.304 4.6298 107.243L136.936 284.94C139.06 287.793 143.974 288.857 147.892 287.309L391.771 190.963C394.29 189.968 395.868 188.128 395.992 186.039ZM2.34293 104.145C2.48581 101.752 4.36646 99.559 7.25306 98.419L251.132 2.07263C255.688 0.273786 261.404 1.51007 263.875 4.82902L396.18 182.525C396.993 183.618 397.381 184.845 397.309 186.081C397.165 188.472 395.283 190.667 392.401 191.808L148.519 288.154C143.964 289.953 138.248 288.716 135.776 285.396L3.47318 107.701C2.65947 106.608 2.26859 105.379 2.34293 104.145Z" fill="#e6e3e3"/>
<mask id="mask1_6459_4300" style="mask-type:luminance" maskUnits="userSpaceOnUse" x="0" y="0" width="379" height="276">
<path fill-rule="evenodd" clip-rule="evenodd" d="M0 0H378.327V275.596H0V0Z" fill="white"/>
</mask>
<g mask="url(#mask1_6459_4300)">
<path fill-rule="evenodd" clip-rule="evenodd" d="M377.002 183.017C377.058 182.075 376.784 181.126 376.208 180.272L257.878 4.15224C255.985 1.33136 251.293 0.158294 247.421 1.5384L5.70035 87.7048C3.12564 88.6225 1.45059 90.4896 1.32572 92.5769C1.26938 93.5205 1.54178 94.47 2.1162 95.324L120.446 271.444C122.342 274.264 127.032 275.437 130.905 274.056L372.625 187.892C375.198 186.973 376.876 185.106 377.002 183.017ZM0.00841257 92.5349C0.154195 90.0955 2.11441 87.9135 5.1195 86.8427L246.84 0.675874C251.364 -0.935874 256.848 0.433624 259.063 3.73009L377.395 179.85C378.064 180.848 378.384 181.957 378.319 183.06C378.172 185.5 376.214 187.682 373.204 188.753L131.484 274.918C126.959 276.533 121.477 275.163 119.262 271.866L0.930151 95.7448C0.260482 94.7491 -0.0577993 93.638 0.00841257 92.5349Z" fill="#e6e3e3"/>
</g>
</g>
</svg>
